<svg width="600" height="600" viewBox="0 0 600 600" fill="none" xmlns="http://www.w3.org/2000/svg">
<path d="M383.616 495.221H216.383L222.277 369.714H377.723L383.616 495.221Z" fill="#C3C2C6"/>
<path d="M381.457 454.251H218.543L222.273 374.937H377.727L381.457 454.251Z" fill="#B3B2B6"/>
<path d="M188.649 484.762H411.351C425.412 484.762 436.917 496.267 436.917 510.328H163.083C163.083 496.267 174.588 484.762 188.649 484.762Z" fill="#C9C8CD"/>
<path d="M556 275.345V432.705C556 438.996 550.907 444.09 544.691 444.09H55.31C49.093 444.09 44 438.996 44 432.705V275.345C44 269.053 49.093 263.96 55.31 263.96H544.691C550.907 263.961 556 269.054 556 275.345Z" fill="#C9C8CD"/>
<path d="M556 103.83V390.613H44V103.83H44.374C46.097 95.367 53.662 89 62.575 89H537.426C546.339 89 553.903 95.367 555.626 103.83H556Z" fill="#2D2D33"/>
<path d="M525.085 118.368H74.916V361.247H525.085V118.368Z" fill="#F4F4F5"/>
<path d="M222.519 172.697H100.498V232.296H222.519V172.697Z" fill="#B3B2B6"/>
<path d="M362.843 172.697H240.822V232.296H362.843V172.697Z" fill="#B3B2B6"/>
<path d="M503.166 172.697H381.145V232.296H503.166V172.697Z" fill="#B3B2B6"/>
<path d="M170.224 241.883H100.498V253.213H170.224V241.883Z" fill="#B3B2B6"/>
<path d="M200.125 140.241H130.399V145.906H200.125V140.241Z" fill="#B3B2B6"/>
<path d="M170.224 323.52H100.498V334.85H170.224V323.52Z" fill="#B3B2B6"/>
<path d="M223.39 260.186H100.498V271.516H223.39V260.186Z" fill="#B3B2B6"/>
<path d="M223.39 281.249H100.498V292.579H223.39V281.249Z" fill="#B3B2B6"/>
<path d="M223.39 302.312H100.498V313.642H223.39V302.312Z" fill="#B3B2B6"/>
<path d="M312.727 241.883H243.001V253.213H312.727V241.883Z" fill="#B3B2B6"/>
<path d="M312.727 323.52H243.001V334.85H312.727V323.52Z" fill="#B3B2B6"/>
<path d="M365.893 260.186H243.001V271.516H365.893V260.186Z" fill="#B3B2B6"/>
<path d="M365.893 281.249H243.001V292.579H365.893V281.249Z" fill="#B3B2B6"/>
<path d="M365.893 302.312H243.001V313.642H365.893V302.312Z" fill="#B3B2B6"/>
<path d="M450.776 241.883H381.05V253.213H450.776V241.883Z" fill="#B3B2B6"/>
<path d="M450.776 323.52H381.05V334.85H450.776V323.52Z" fill="#B3B2B6"/>
<path d="M503.942 260.186H381.05V271.516H503.942V260.186Z" fill="#B3B2B6"/>
<path d="M503.942 281.249H381.05V292.579H503.942V281.249Z" fill="#B3B2B6"/>
<path d="M503.942 302.312H381.05V313.642H503.942V302.312Z" fill="#B3B2B6"/>
<path d="M116.808 137.087C120.114 140.393 120.114 145.754 116.808 149.06C113.502 152.366 108.141 152.366 104.835 149.06C101.529 145.754 101.529 140.393 104.835 137.087C108.141 133.78 113.502 133.78 116.808 137.087Z" fill="#B3B2B6"/>
<path d="M469.406 143.077L475.061 148.731L480.715 143.077L475.061 137.422L469.406 143.077Z" fill="#B3B2B6"/>
<path d="M488.798 143.076L494.453 148.731L500.108 143.076L494.453 137.422L488.798 143.076Z" fill="#B3B2B6"/>
<path d="M452.192 143.076L457.847 148.731L463.501 143.076L457.847 137.421L452.192 143.076Z" fill="#B3B2B6"/>
</svg>
