<svg width="600" height="600" viewBox="0 0 600 600" fill="none" xmlns="http://www.w3.org/2000/svg">
<path d="M548.488 59.512V556H52.221V107.22H52V62.966H52.441C52.147 61.862 52 60.687 52 59.512C52 50.983 58.91 44 67.511 44H532.978C541.579 44 548.488 50.983 548.488 59.512Z" fill="#44494F"/>
<path d="M539.512 104.792H60.9771V545.721H539.512V104.792Z" fill="white"/>
<path opacity="0.06" d="M539.512 104.792H60.9771V124.926H539.512V104.792Z" fill="#0D0D0D"/>
<path d="M173.998 88.116C180.5 88.116 185.771 82.5052 185.771 75.584C185.771 68.6628 180.5 63.052 173.998 63.052C167.496 63.052 162.225 68.6628 162.225 75.584C162.225 82.5052 167.496 88.116 173.998 88.116Z" fill="#8BC66F"/>
<path d="M131.168 88.116C137.67 88.116 142.941 82.5052 142.941 75.584C142.941 68.6628 137.67 63.052 131.168 63.052C124.666 63.052 119.395 68.6628 119.395 75.584C119.395 82.5052 124.666 88.116 131.168 88.116Z" fill="#F4DB6D"/>
<path d="M88.3389 88.116C94.841 88.116 100.112 82.5052 100.112 75.584C100.112 68.6628 94.841 63.052 88.3389 63.052C81.8369 63.052 76.5659 68.6628 76.5659 75.584C76.5659 82.5052 81.8369 88.116 88.3389 88.116Z" fill="#E06276"/>
<g opacity="0.5">
<g opacity="0.5">
<path opacity="0.5" d="M247.642 405.304H184.793V457.779H247.642V405.304Z" fill="#CDE3DF"/>
<g opacity="0.5">
<path opacity="0.5" d="M299.625 446.887H257.626V454.114H299.625V446.887Z" fill="#CDE3DF"/>
<path opacity="0.5" d="M344.377 407.435H257.626V414.991H344.377V407.435Z" fill="#CDE3DF"/>
<path opacity="0.5" d="M344.377 427.079H257.626V434.635H344.377V427.079Z" fill="#CDE3DF"/>
</g>
</g>
<g opacity="0.5">
<path opacity="0.5" d="M247.642 405.304H184.793V457.779H247.642V405.304Z" fill="#C9E5E1"/>
<g opacity="0.5">
<path opacity="0.5" d="M299.625 446.887H257.626V454.114H299.625V446.887Z" fill="#C9E5E1"/>
<path opacity="0.5" d="M344.377 407.435H257.626V414.991H344.377V407.435Z" fill="#C9E5E1"/>
<path opacity="0.5" d="M344.377 427.079H257.626V434.635H344.377V427.079Z" fill="#C9E5E1"/>
</g>
</g>
</g>
<path opacity="0.5" d="M343.62 507.572H256.869V515.128H343.62V507.572Z" fill="#CDE3DF"/>
<path opacity="0.5" d="M171.571 230.479H82.8262V255.207H171.571V230.479Z" fill="#CDE3DF"/>
<path opacity="0.5" d="M171.571 271.217H82.8262V295.945H171.571V271.217Z" fill="#CDE3DF"/>
<path opacity="0.5" d="M171.571 311.955H82.8262V336.683H171.571V311.955Z" fill="#CDE3DF"/>
<path opacity="0.5" d="M171.571 352.692H82.8262V377.42H171.571V352.692Z" fill="#CDE3DF"/>
<path opacity="0.5" d="M519.542 193.097H80.9468V214.055H519.542V193.097Z" fill="#CDE3DF"/>
<path opacity="0.5" d="M519.542 480.925H80.9468V485.343H519.542V480.925Z" fill="#CDE3DF"/>
<g opacity="0.5">
<g opacity="0.5">
<path opacity="0.5" d="M424.389 404.62H361.54V457.095H424.389V404.62Z" fill="#CDE3DF"/>
<g opacity="0.5">
<path opacity="0.5" d="M476.372 446.203H434.373V453.43H476.372V446.203Z" fill="#CDE3DF"/>
<path opacity="0.5" d="M521.124 406.751H434.373V414.307H521.124V406.751Z" fill="#CDE3DF"/>
<path opacity="0.5" d="M521.124 426.395H434.373V433.951H521.124V426.395Z" fill="#CDE3DF"/>
</g>
</g>
<g opacity="0.5">
<path opacity="0.5" d="M424.389 404.62H361.54V457.095H424.389V404.62Z" fill="#C9E5E1"/>
<g opacity="0.5">
<path opacity="0.5" d="M476.372 446.203H434.373V453.43H476.372V446.203Z" fill="#C9E5E1"/>
<path opacity="0.5" d="M521.124 406.751H434.373V414.307H521.124V406.751Z" fill="#C9E5E1"/>
<path opacity="0.5" d="M521.124 426.395H434.373V433.951H521.124V426.395Z" fill="#C9E5E1"/>
</g>
</g>
</g>
<path d="M474.251 150.938C473.572 148.038 472.164 145.356 470.183 143.149C468.201 140.939 465.643 139.204 462.653 138.208C462.345 138.105 462.032 138.008 461.715 137.922C458.906 137.154 456.072 137.114 453.407 137.68C450.255 138.35 447.343 139.871 444.999 142.061L458.007 155.201L458.037 155.232H458.036L458.006 155.201L457.983 155.285L458.006 155.201L445 142.061C442.694 144.218 440.934 147.019 440.04 150.289C439.145 153.559 439.235 156.865 440.123 159.895C441.028 162.975 442.76 165.765 445.133 167.946C445.153 167.964 445.172 167.984 445.195 168.001C447.187 169.817 449.627 171.205 452.407 171.966C452.724 172.052 453.042 172.128 453.359 172.197C456.439 172.861 459.526 172.667 462.355 171.775C462.38 171.767 462.407 171.758 462.432 171.748C465.232 170.852 467.779 169.269 469.82 167.137C471.784 165.086 473.28 162.529 474.082 159.597C474.885 156.664 474.898 153.703 474.251 150.938Z" fill="#7BCAD4"/>
<path d="M514.539 150.938C513.86 148.038 512.452 145.356 510.471 143.149C508.489 140.939 505.931 139.204 502.941 138.208C502.633 138.105 502.321 138.008 502.003 137.922C499.194 137.154 496.36 137.114 493.695 137.68C490.543 138.35 487.631 139.871 485.287 142.061L498.295 155.201L498.325 155.232H498.324L498.294 155.201L498.271 155.285L498.294 155.201L485.286 142.061C482.98 144.218 481.22 147.019 480.326 150.289C479.431 153.559 479.521 156.865 480.409 159.895C481.314 162.975 483.046 165.765 485.419 167.946C485.439 167.964 485.458 167.984 485.481 168.001C487.473 169.817 489.913 171.205 492.693 171.966C493.01 172.052 493.328 172.128 493.646 172.197C496.726 172.861 499.813 172.667 502.642 171.775C502.667 171.767 502.694 171.758 502.719 171.748C505.519 170.852 508.066 169.269 510.107 167.137C512.071 165.086 513.567 162.529 514.369 159.597C515.173 156.664 515.186 153.703 514.539 150.938Z" fill="#4F9FD8"/>
<path d="M244.597 175.732V147.503H238.936V180.215H262.459V175.732H244.597Z" fill="#44494F"/>
<path d="M294.069 159.264C293.996 158.015 293.849 156.839 293.628 155.811C293.334 154.781 292.967 153.826 292.452 153.017C292.011 152.136 291.276 151.326 290.393 150.517C289.144 149.415 287.747 148.606 286.203 148.019C284.659 147.504 282.822 147.21 280.837 147.21C278.779 147.21 276.941 147.504 275.397 148.019C273.853 148.606 272.456 149.415 271.207 150.517C270.325 151.326 269.59 152.136 269.149 153.017C268.634 153.826 268.267 154.781 267.973 155.811C267.753 156.839 267.606 158.015 267.532 159.264C267.532 160.588 267.458 162.132 267.458 163.822C267.458 165.513 267.532 167.056 267.532 168.381C267.606 169.63 267.753 170.806 267.973 171.836C268.267 172.864 268.635 173.819 269.149 174.702C269.59 175.511 270.325 176.393 271.207 177.128C272.457 178.23 273.853 179.039 275.397 179.626C276.941 180.215 278.779 180.435 280.837 180.435C282.822 180.435 284.66 180.214 286.203 179.626C287.747 179.039 289.144 178.23 290.393 177.128C291.275 176.392 292.011 175.511 292.452 174.702C292.967 173.819 293.334 172.864 293.628 171.836C293.849 170.806 293.996 169.63 294.069 168.381C294.069 167.056 294.143 165.513 294.143 163.822C294.143 162.132 294.069 160.588 294.069 159.264ZM288.409 167.939C288.409 169.041 288.262 169.924 288.115 170.731C287.968 171.467 287.747 172.056 287.454 172.569C287.16 173.084 286.792 173.525 286.351 173.965C285.616 174.627 284.808 175.142 283.852 175.51C282.97 175.878 281.941 176.025 280.838 176.025C279.662 176.025 278.633 175.878 277.751 175.51C276.795 175.142 275.987 174.627 275.251 173.965C274.81 173.525 274.442 173.084 274.149 172.569C273.855 172.056 273.634 171.467 273.487 170.658C273.34 169.924 273.193 168.967 273.193 167.866C273.119 166.838 273.119 165.44 273.119 163.823C273.119 162.206 273.119 160.81 273.193 159.706C273.193 158.604 273.34 157.721 273.487 156.987C273.634 156.178 273.855 155.589 274.149 155.076C274.443 154.561 274.81 154.046 275.251 153.604C276.721 152.281 278.559 151.621 280.838 151.621C283.043 151.621 284.881 152.281 286.351 153.604C286.792 154.045 287.16 154.487 287.454 155.002C287.748 155.517 287.969 156.177 288.115 156.913C288.262 157.721 288.409 158.604 288.409 159.706C288.483 160.81 288.483 162.206 288.483 163.823C288.483 165.439 288.483 166.837 288.409 167.939Z" fill="#44494F"/>
<path d="M314.432 162.499V166.761H322.371V168.527C322.371 169.629 322.224 170.584 321.93 171.393C321.709 172.274 321.195 173.01 320.533 173.746C319.798 174.48 318.915 175.069 317.813 175.437C316.784 175.878 315.607 176.026 314.431 176.026C312.226 176.026 310.388 175.364 308.918 174.041C308.477 173.6 308.109 173.158 307.815 172.569C307.521 172.056 307.301 171.467 307.08 170.731C306.933 169.923 306.86 169.04 306.786 167.939C306.712 166.837 306.712 165.439 306.712 163.822C306.712 162.205 306.712 160.809 306.786 159.705C306.86 158.603 306.933 157.72 307.08 156.986C307.301 156.177 307.521 155.588 307.815 155.075C308.109 154.56 308.477 154.045 308.918 153.603C310.388 152.28 312.226 151.62 314.431 151.62C316.49 151.62 318.18 152.135 319.503 153.09C320.826 154.118 321.782 155.516 322.223 157.279H327.883C327.589 155.956 327.148 154.634 326.486 153.384C325.751 152.207 324.869 151.105 323.693 150.15C322.59 149.267 321.267 148.531 319.65 148.018C318.106 147.429 316.342 147.209 314.431 147.209C312.373 147.209 310.608 147.503 308.991 148.018C307.447 148.605 306.05 149.414 304.874 150.516C303.918 151.325 303.257 152.135 302.742 153.016C302.228 153.825 301.86 154.78 301.64 155.81C301.346 156.838 301.199 158.014 301.199 159.263C301.125 160.587 301.125 162.131 301.125 163.821C301.125 165.512 301.125 167.055 301.199 168.38C301.199 169.629 301.346 170.805 301.64 171.835C301.86 172.863 302.228 173.818 302.742 174.701C303.257 175.51 303.918 176.392 304.874 177.127C306.05 178.229 307.447 179.038 308.991 179.625C310.608 180.214 312.373 180.434 314.431 180.434C316.416 180.434 318.254 180.14 319.944 179.553C321.708 178.964 323.252 178.008 324.649 176.759C325.825 175.583 326.707 174.259 327.222 172.863C327.737 171.467 327.957 169.629 327.957 167.497V162.499H314.432V162.499Z" fill="#44494F"/>
<path d="M361.478 159.264C361.405 158.015 361.257 156.839 361.037 155.811C360.743 154.781 360.375 153.826 359.934 153.017C359.419 152.136 358.684 151.326 357.802 150.517C356.552 149.415 355.155 148.606 353.612 148.019C352.068 147.504 350.23 147.21 348.245 147.21C346.187 147.21 344.349 147.504 342.805 148.019C341.262 148.606 339.865 149.415 338.615 150.517C337.733 151.326 336.998 152.136 336.557 153.017C336.042 153.826 335.675 154.781 335.381 155.811C335.161 156.839 335.014 158.015 334.94 159.264C334.94 160.588 334.867 162.132 334.867 163.822C334.867 165.513 334.94 167.056 334.94 168.381C335.014 169.63 335.161 170.806 335.381 171.836C335.675 172.864 336.043 173.819 336.557 174.702C336.998 175.511 337.733 176.393 338.615 177.128C339.865 178.23 341.262 179.039 342.805 179.626C344.349 180.215 346.187 180.435 348.245 180.435C350.23 180.435 352.068 180.214 353.612 179.626C355.155 179.039 356.552 178.23 357.802 177.128C358.684 176.392 359.419 175.511 359.934 174.702C360.375 173.819 360.743 172.864 361.037 171.836C361.257 170.806 361.405 169.63 361.478 168.381C361.478 167.056 361.551 165.513 361.551 163.822C361.552 162.132 361.478 160.588 361.478 159.264ZM355.818 167.939C355.818 169.041 355.671 169.924 355.524 170.731C355.377 171.467 355.156 172.056 354.862 172.569C354.568 173.084 354.2 173.525 353.759 173.965C353.024 174.627 352.216 175.142 351.26 175.51C350.378 175.878 349.349 176.025 348.246 176.025C347.07 176.025 346.041 175.878 345.159 175.51C344.203 175.142 343.395 174.627 342.66 173.965C342.219 173.525 341.851 173.084 341.557 172.569C341.263 172.056 341.042 171.467 340.895 170.658C340.748 169.924 340.601 168.967 340.601 167.866C340.527 166.838 340.527 165.44 340.527 163.823C340.527 162.206 340.527 160.81 340.601 159.706C340.601 158.604 340.748 157.721 340.895 156.987C341.042 156.178 341.263 155.589 341.557 155.076C341.851 154.561 342.219 154.046 342.66 153.604C344.13 152.281 345.968 151.621 348.246 151.621C350.452 151.621 352.29 152.281 353.759 153.604C354.2 154.045 354.568 154.487 354.862 155.002C355.156 155.517 355.377 156.177 355.524 156.913C355.671 157.721 355.818 158.604 355.818 159.706C355.892 160.81 355.892 162.206 355.892 163.823C355.892 165.439 355.892 166.837 355.818 167.939Z" fill="#44494F"/>
<path d="M519.542 230.855H184.492V393.053H519.542V230.855Z" fill="#CCE3AE"/>
<path opacity="0.8" d="M336.444 285.807C349.747 285.807 360.532 275.277 360.532 262.287C360.532 249.297 349.747 238.767 336.444 238.767C323.141 238.767 312.356 249.297 312.356 262.287C312.356 275.277 323.141 285.807 336.444 285.807Z" fill="#F9F8C9"/>
<g opacity="0.5">
<path opacity="0.5" d="M376.926 393.054H184.793L253.095 314.158C268.349 296.521 293.37 296.521 308.624 314.158L334.548 344.143L376.926 393.054Z" fill="#7BC48E"/>
</g>
<g opacity="0.5">
<path opacity="0.5" d="M519.542 357.711V393.054H295L337.534 344.143L394.111 279.154C409.782 261.042 435.56 261.042 451.23 279.154L519.542 357.711Z" fill="#7BC48E"/>
</g>
</svg>
