<svg width="600" height="600" viewBox="0 0 600 600" fill="none" xmlns="http://www.w3.org/2000/svg">
<rect width="600" height="600" fill="white"/>
<path d="M319.236 124.157H276.254V501.622H319.236V124.157Z" fill="#595C5A"/>
<path d="M100.146 501.588L120.861 544.564H276.234V501.588H100.146Z" fill="#595C5A"/>
<path d="M319.21 501.588V544.564H479.111L499.826 501.588H319.21Z" fill="#595C5A"/>
<path d="M319.211 501.588H276.234V544.565H319.211V501.588Z" fill="#979696"/>
<path d="M555.972 62.8371V167.887C555.972 172.202 552.487 175.687 548.172 175.687H51.8C47.485 175.687 44 172.202 44 167.887V62.8371C44 58.5221 47.485 55.0381 51.8 55.0381H548.172C552.487 55.0371 555.972 58.5221 555.972 62.8371Z" fill="#595C5A"/>
<path d="M555.972 203.318V308.368C555.972 312.683 552.487 316.251 548.172 316.251H51.8C47.485 316.251 44 312.683 44 308.368V203.318C44 199.003 47.485 195.518 51.8 195.518H548.172C552.487 195.518 555.972 199.003 555.972 203.318Z" fill="#595C5A"/>
<path d="M555.972 343.882V448.932C555.972 453.247 552.487 456.731 548.172 456.731H51.8C47.485 456.731 44 453.247 44 448.932V343.882C44 339.568 47.485 336.083 51.8 336.083H548.172C552.487 336.082 555.972 339.568 555.972 343.882Z" fill="#595C5A"/>
<path d="M536.427 61.2642H63.5449C56.1939 61.2642 50.2349 67.2232 50.2349 74.5742V156.113C50.2349 163.464 56.1939 169.422 63.5449 169.422H536.427C543.778 169.422 549.737 163.463 549.737 156.113V74.5732C549.737 67.2222 543.778 61.2642 536.427 61.2642Z" fill="white"/>
<path d="M536.427 201.79H63.5449C56.1939 201.79 50.2349 207.749 50.2349 215.1V296.639C50.2349 303.99 56.1939 309.949 63.5449 309.949H536.427C543.778 309.949 549.737 303.99 549.737 296.639V215.1C549.737 207.749 543.778 201.79 536.427 201.79Z" fill="white"/>
<path d="M536.427 342.318H63.5449C56.1939 342.318 50.2349 348.277 50.2349 355.628V437.167C50.2349 444.518 56.1939 450.477 63.5449 450.477H536.427C543.778 450.477 549.737 444.518 549.737 437.167V355.628C549.737 348.276 543.778 342.318 536.427 342.318Z" fill="white"/>
<path d="M101.355 81.5581H87.8289C86.6599 81.5581 85.7129 82.5051 85.7129 83.6741V97.2221C85.7129 98.3911 86.6609 99.3381 87.8289 99.3381H101.355C102.524 99.3381 103.471 98.3901 103.471 97.2221V83.6741C103.471 82.5051 102.524 81.5581 101.355 81.5581Z" fill="#595C5A"/>
<path d="M101.355 107.308H87.8289C86.6599 107.308 85.7129 108.255 85.7129 109.424V122.972C85.7129 124.141 86.6609 125.088 87.8289 125.088H101.355C102.524 125.088 103.471 124.14 103.471 122.972V109.424C103.471 108.256 102.524 107.308 101.355 107.308Z" fill="#595C5A"/>
<path d="M101.355 133.059H87.8289C86.6599 133.059 85.7129 134.007 85.7129 135.175V148.723C85.7129 149.892 86.6609 150.839 87.8289 150.839H101.355C102.524 150.839 103.471 149.891 103.471 148.723V135.175C103.471 134.006 102.524 133.059 101.355 133.059Z" fill="#595C5A"/>
<path d="M133.021 81.5581H119.495C118.326 81.5581 117.379 82.5051 117.379 83.6741V97.2221C117.379 98.3911 118.327 99.3381 119.495 99.3381H133.021C134.19 99.3381 135.137 98.3901 135.137 97.2221V83.6741C135.137 82.5051 134.19 81.5581 133.021 81.5581Z" fill="#595C5A"/>
<path d="M133.021 107.308H119.495C118.326 107.308 117.379 108.255 117.379 109.424V122.972C117.379 124.141 118.327 125.088 119.495 125.088H133.021C134.19 125.088 135.137 124.14 135.137 122.972V109.424C135.137 108.256 134.19 107.308 133.021 107.308Z" fill="#595C5A"/>
<path d="M133.021 133.059H119.495C118.326 133.059 117.379 134.007 117.379 135.175V148.723C117.379 149.892 118.327 150.839 119.495 150.839H133.021C134.19 150.839 135.137 149.891 135.137 148.723V135.175C135.137 134.006 134.19 133.059 133.021 133.059Z" fill="#595C5A"/>
<path d="M164.687 81.5581H151.162C149.993 81.5581 149.046 82.5051 149.046 83.6741V97.2221C149.046 98.3911 149.994 99.3381 151.162 99.3381H164.687C165.856 99.3381 166.803 98.3901 166.803 97.2221V83.6741C166.804 82.5051 165.856 81.5581 164.687 81.5581Z" fill="#595C5A"/>
<path d="M164.687 107.308H151.162C149.993 107.308 149.046 108.255 149.046 109.424V122.972C149.046 124.141 149.994 125.088 151.162 125.088H164.687C165.856 125.088 166.803 124.14 166.803 122.972V109.424C166.804 108.256 165.856 107.308 164.687 107.308Z" fill="#595C5A"/>
<path d="M164.687 133.059H151.162C149.993 133.059 149.046 134.007 149.046 135.175V148.723C149.046 149.892 149.994 150.839 151.162 150.839H164.687C165.856 150.839 166.803 149.891 166.803 148.723V135.175C166.804 134.006 165.856 133.059 164.687 133.059Z" fill="#595C5A"/>
<path d="M196.354 81.5581H182.828C181.659 81.5581 180.712 82.5051 180.712 83.6741V97.2221C180.712 98.3911 181.659 99.3381 182.828 99.3381H196.354C197.523 99.3381 198.47 98.3901 198.47 97.2221V83.6741C198.47 82.5051 197.522 81.5581 196.354 81.5581Z" fill="#595C5A"/>
<path d="M196.354 107.308H182.828C181.659 107.308 180.712 108.255 180.712 109.424V122.972C180.712 124.141 181.659 125.088 182.828 125.088H196.354C197.523 125.088 198.47 124.14 198.47 122.972V109.424C198.47 108.256 197.522 107.308 196.354 107.308Z" fill="#595C5A"/>
<path d="M196.354 133.059H182.828C181.659 133.059 180.712 134.007 180.712 135.175V148.723C180.712 149.892 181.659 150.839 182.828 150.839H196.354C197.523 150.839 198.47 149.891 198.47 148.723V135.175C198.47 134.006 197.522 133.059 196.354 133.059Z" fill="#595C5A"/>
<path d="M228.02 81.5581H214.494C213.325 81.5581 212.378 82.5051 212.378 83.6741V97.2221C212.378 98.3911 213.325 99.3381 214.494 99.3381H228.02C229.189 99.3381 230.136 98.3901 230.136 97.2221V83.6741C230.136 82.5051 229.188 81.5581 228.02 81.5581Z" fill="#595C5A"/>
<path d="M228.02 107.308H214.494C213.325 107.308 212.378 108.255 212.378 109.424V122.972C212.378 124.141 213.325 125.088 214.494 125.088H228.02C229.189 125.088 230.136 124.14 230.136 122.972V109.424C230.136 108.256 229.188 107.308 228.02 107.308Z" fill="#595C5A"/>
<path d="M228.02 133.059H214.494C213.325 133.059 212.378 134.007 212.378 135.175V148.723C212.378 149.892 213.325 150.839 214.494 150.839H228.02C229.189 150.839 230.136 149.891 230.136 148.723V135.175C230.136 134.006 229.188 133.059 228.02 133.059Z" fill="#595C5A"/>
<path d="M369.317 104.742H269.104V125.944H369.317V104.742Z" fill="#979696"/>
<path d="M413.338 135.685C424.1 135.685 432.825 126.961 432.825 116.198C432.825 105.436 424.1 96.7112 413.338 96.7112C402.576 96.7112 393.851 105.436 393.851 116.198C393.851 126.961 402.576 135.685 413.338 135.685Z" fill="#529F77"/>
<path d="M460.663 135.685C471.425 135.685 480.15 126.961 480.15 116.198C480.15 105.436 471.425 96.7112 460.663 96.7112C449.9 96.7112 441.176 105.436 441.176 116.198C441.176 126.961 449.9 135.685 460.663 135.685Z" fill="#C9C980"/>
<path d="M507.989 135.685C518.751 135.685 527.476 126.961 527.476 116.198C527.476 105.436 518.751 96.7112 507.989 96.7112C497.227 96.7112 488.502 105.436 488.502 116.198C488.502 126.961 497.227 135.685 507.989 135.685Z" fill="#B3657C"/>
<path d="M101.355 222.084H87.8289C86.6599 222.084 85.7129 223.032 85.7129 224.2V237.748C85.7129 238.917 86.6609 239.864 87.8289 239.864H101.355C102.524 239.864 103.471 238.916 103.471 237.748V224.2C103.471 223.032 102.524 222.084 101.355 222.084Z" fill="#595C5A"/>
<path d="M101.355 247.835H87.8289C86.6599 247.835 85.7129 248.782 85.7129 249.951V263.499C85.7129 264.668 86.6609 265.615 87.8289 265.615H101.355C102.524 265.615 103.471 264.667 103.471 263.499V249.951C103.471 248.783 102.524 247.835 101.355 247.835Z" fill="#595C5A"/>
<path d="M101.355 273.585H87.8289C86.6599 273.585 85.7129 274.533 85.7129 275.701V289.249C85.7129 290.418 86.6609 291.365 87.8289 291.365H101.355C102.524 291.365 103.471 290.417 103.471 289.249V275.701C103.471 274.533 102.524 273.585 101.355 273.585Z" fill="#595C5A"/>
<path d="M133.021 222.084H119.495C118.326 222.084 117.379 223.032 117.379 224.2V237.748C117.379 238.917 118.327 239.864 119.495 239.864H133.021C134.19 239.864 135.137 238.916 135.137 237.748V224.2C135.137 223.032 134.19 222.084 133.021 222.084Z" fill="#595C5A"/>
<path d="M133.021 247.835H119.495C118.326 247.835 117.379 248.782 117.379 249.951V263.499C117.379 264.668 118.327 265.615 119.495 265.615H133.021C134.19 265.615 135.137 264.667 135.137 263.499V249.951C135.137 248.783 134.19 247.835 133.021 247.835Z" fill="#595C5A"/>
<path d="M133.021 273.585H119.495C118.326 273.585 117.379 274.533 117.379 275.701V289.249C117.379 290.418 118.327 291.365 119.495 291.365H133.021C134.19 291.365 135.137 290.417 135.137 289.249V275.701C135.137 274.533 134.19 273.585 133.021 273.585Z" fill="#595C5A"/>
<path d="M164.687 222.084H151.162C149.993 222.084 149.046 223.032 149.046 224.2V237.748C149.046 238.917 149.994 239.864 151.162 239.864H164.687C165.856 239.864 166.803 238.916 166.803 237.748V224.2C166.804 223.032 165.856 222.084 164.687 222.084Z" fill="#595C5A"/>
<path d="M164.687 247.835H151.162C149.993 247.835 149.046 248.782 149.046 249.951V263.499C149.046 264.668 149.994 265.615 151.162 265.615H164.687C165.856 265.615 166.803 264.667 166.803 263.499V249.951C166.804 248.783 165.856 247.835 164.687 247.835Z" fill="#595C5A"/>
<path d="M164.687 273.585H151.162C149.993 273.585 149.046 274.533 149.046 275.701V289.249C149.046 290.418 149.994 291.365 151.162 291.365H164.687C165.856 291.365 166.803 290.417 166.803 289.249V275.701C166.804 274.533 165.856 273.585 164.687 273.585Z" fill="#595C5A"/>
<path d="M196.354 222.084H182.828C181.659 222.084 180.712 223.032 180.712 224.2V237.748C180.712 238.917 181.659 239.864 182.828 239.864H196.354C197.523 239.864 198.47 238.916 198.47 237.748V224.2C198.47 223.032 197.522 222.084 196.354 222.084Z" fill="#595C5A"/>
<path d="M196.354 247.835H182.828C181.659 247.835 180.712 248.782 180.712 249.951V263.499C180.712 264.668 181.659 265.615 182.828 265.615H196.354C197.523 265.615 198.47 264.667 198.47 263.499V249.951C198.47 248.783 197.522 247.835 196.354 247.835Z" fill="#595C5A"/>
<path d="M196.354 273.585H182.828C181.659 273.585 180.712 274.533 180.712 275.701V289.249C180.712 290.418 181.659 291.365 182.828 291.365H196.354C197.523 291.365 198.47 290.417 198.47 289.249V275.701C198.47 274.533 197.522 273.585 196.354 273.585Z" fill="#595C5A"/>
<path d="M228.02 222.084H214.494C213.325 222.084 212.378 223.032 212.378 224.2V237.748C212.378 238.917 213.325 239.864 214.494 239.864H228.02C229.189 239.864 230.136 238.916 230.136 237.748V224.2C230.136 223.032 229.188 222.084 228.02 222.084Z" fill="#595C5A"/>
<path d="M228.02 247.835H214.494C213.325 247.835 212.378 248.782 212.378 249.951V263.499C212.378 264.668 213.325 265.615 214.494 265.615H228.02C229.189 265.615 230.136 264.667 230.136 263.499V249.951C230.136 248.783 229.188 247.835 228.02 247.835Z" fill="#595C5A"/>
<path d="M228.02 273.585H214.494C213.325 273.585 212.378 274.533 212.378 275.701V289.249C212.378 290.418 213.325 291.365 214.494 291.365H228.02C229.189 291.365 230.136 290.417 230.136 289.249V275.701C230.136 274.533 229.188 273.585 228.02 273.585Z" fill="#595C5A"/>
<path d="M369.317 245.269H269.104V266.471H369.317V245.269Z" fill="#979696"/>
<path d="M413.338 276.212C424.1 276.212 432.825 267.487 432.825 256.725C432.825 245.963 424.1 237.238 413.338 237.238C402.576 237.238 393.851 245.963 393.851 256.725C393.851 267.487 402.576 276.212 413.338 276.212Z" fill="#529F77"/>
<path d="M460.663 276.212C471.425 276.212 480.15 267.487 480.15 256.725C480.15 245.963 471.425 237.238 460.663 237.238C449.9 237.238 441.176 245.963 441.176 256.725C441.176 267.487 449.9 276.212 460.663 276.212Z" fill="#C9C980"/>
<path d="M507.989 276.212C518.751 276.212 527.476 267.487 527.476 256.725C527.476 245.963 518.751 237.238 507.989 237.238C497.227 237.238 488.502 245.963 488.502 256.725C488.502 267.487 497.227 276.212 507.989 276.212Z" fill="#B3657C"/>
<path d="M101.355 362.611H87.8289C86.6599 362.611 85.7129 363.559 85.7129 364.727V378.275C85.7129 379.444 86.6609 380.391 87.8289 380.391H101.355C102.524 380.391 103.471 379.443 103.471 378.275V364.727C103.471 363.559 102.524 362.611 101.355 362.611Z" fill="#595C5A"/>
<path d="M101.355 388.362H87.8289C86.6599 388.362 85.7129 389.309 85.7129 390.478V404.026C85.7129 405.195 86.6609 406.142 87.8289 406.142H101.355C102.524 406.142 103.471 405.195 103.471 404.026V390.478C103.471 389.309 102.524 388.362 101.355 388.362Z" fill="#595C5A"/>
<path d="M101.355 414.112H87.8289C86.6599 414.112 85.7129 415.06 85.7129 416.228V429.776C85.7129 430.945 86.6609 431.892 87.8289 431.892H101.355C102.524 431.892 103.471 430.944 103.471 429.776V416.228C103.471 415.06 102.524 414.112 101.355 414.112Z" fill="#595C5A"/>
<path d="M133.021 362.611H119.495C118.326 362.611 117.379 363.559 117.379 364.727V378.275C117.379 379.444 118.327 380.391 119.495 380.391H133.021C134.19 380.391 135.137 379.443 135.137 378.275V364.727C135.137 363.559 134.19 362.611 133.021 362.611Z" fill="#595C5A"/>
<path d="M133.021 388.362H119.495C118.326 388.362 117.379 389.309 117.379 390.478V404.026C117.379 405.195 118.327 406.142 119.495 406.142H133.021C134.19 406.142 135.137 405.195 135.137 404.026V390.478C135.137 389.309 134.19 388.362 133.021 388.362Z" fill="#595C5A"/>
<path d="M133.021 414.112H119.495C118.326 414.112 117.379 415.06 117.379 416.228V429.776C117.379 430.945 118.327 431.892 119.495 431.892H133.021C134.19 431.892 135.137 430.944 135.137 429.776V416.228C135.137 415.06 134.19 414.112 133.021 414.112Z" fill="#595C5A"/>
<path d="M164.687 362.611H151.162C149.993 362.611 149.046 363.559 149.046 364.727V378.275C149.046 379.444 149.994 380.391 151.162 380.391H164.687C165.856 380.391 166.803 379.443 166.803 378.275V364.727C166.804 363.559 165.856 362.611 164.687 362.611Z" fill="#595C5A"/>
<path d="M164.687 388.362H151.162C149.993 388.362 149.046 389.309 149.046 390.478V404.026C149.046 405.195 149.994 406.142 151.162 406.142H164.687C165.856 406.142 166.803 405.195 166.803 404.026V390.478C166.804 389.309 165.856 388.362 164.687 388.362Z" fill="#595C5A"/>
<path d="M164.687 414.112H151.162C149.993 414.112 149.046 415.06 149.046 416.228V429.776C149.046 430.945 149.994 431.892 151.162 431.892H164.687C165.856 431.892 166.803 430.944 166.803 429.776V416.228C166.804 415.06 165.856 414.112 164.687 414.112Z" fill="#595C5A"/>
<path d="M196.354 362.611H182.828C181.659 362.611 180.712 363.559 180.712 364.727V378.275C180.712 379.444 181.659 380.391 182.828 380.391H196.354C197.523 380.391 198.47 379.443 198.47 378.275V364.727C198.47 363.559 197.522 362.611 196.354 362.611Z" fill="#595C5A"/>
<path d="M196.354 388.362H182.828C181.659 388.362 180.712 389.309 180.712 390.478V404.026C180.712 405.195 181.659 406.142 182.828 406.142H196.354C197.523 406.142 198.47 405.195 198.47 404.026V390.478C198.47 389.309 197.522 388.362 196.354 388.362Z" fill="#595C5A"/>
<path d="M196.354 414.112H182.828C181.659 414.112 180.712 415.06 180.712 416.228V429.776C180.712 430.945 181.659 431.892 182.828 431.892H196.354C197.523 431.892 198.47 430.944 198.47 429.776V416.228C198.47 415.06 197.522 414.112 196.354 414.112Z" fill="#595C5A"/>
<path d="M228.02 362.611H214.494C213.325 362.611 212.378 363.559 212.378 364.727V378.275C212.378 379.444 213.325 380.391 214.494 380.391H228.02C229.189 380.391 230.136 379.443 230.136 378.275V364.727C230.136 363.559 229.188 362.611 228.02 362.611Z" fill="#595C5A"/>
<path d="M228.02 388.362H214.494C213.325 388.362 212.378 389.309 212.378 390.478V404.026C212.378 405.195 213.325 406.142 214.494 406.142H228.02C229.189 406.142 230.136 405.195 230.136 404.026V390.478C230.136 389.309 229.188 388.362 228.02 388.362Z" fill="#595C5A"/>
<path d="M228.02 414.112H214.494C213.325 414.112 212.378 415.06 212.378 416.228V429.776C212.378 430.945 213.325 431.892 214.494 431.892H228.02C229.189 431.892 230.136 430.944 230.136 429.776V416.228C230.136 415.06 229.188 414.112 228.02 414.112Z" fill="#595C5A"/>
<path d="M369.317 385.796H269.104V406.998H369.317V385.796Z" fill="#979696"/>
<path d="M413.338 416.739C424.1 416.739 432.825 408.015 432.825 397.252C432.825 386.49 424.1 377.765 413.338 377.765C402.576 377.765 393.851 386.49 393.851 397.252C393.851 408.015 402.576 416.739 413.338 416.739Z" fill="#529F77"/>
<path d="M460.663 416.739C471.425 416.739 480.15 408.015 480.15 397.252C480.15 386.49 471.425 377.765 460.663 377.765C449.9 377.765 441.176 386.49 441.176 397.252C441.176 408.015 449.9 416.739 460.663 416.739Z" fill="#C9C980"/>
<path d="M507.989 416.739C518.751 416.739 527.476 408.015 527.476 397.252C527.476 386.49 518.751 377.765 507.989 377.765C497.227 377.765 488.502 386.49 488.502 397.252C488.502 408.015 497.227 416.739 507.989 416.739Z" fill="#B3657C"/>
<g opacity="0.5">
<path opacity="0.07" d="M319.236 316.251V336.083H548.171C552.486 336.083 555.971 339.569 555.971 343.882V448.932C555.971 453.247 552.486 456.731 548.171 456.731H319.236V501.622H499.795L479.134 544.605H120.837L100.425 502.12L100.176 501.623H276.254V456.732H142.992L198.504 401.22L219.414 380.393L263.724 336.083H276.254V323.553L333.343 266.464L354.42 245.304L397.9 201.824L402.547 197.177L404.207 195.518H548.173C552.488 195.518 555.973 199.003 555.973 203.318V308.368C555.973 312.683 552.488 316.251 548.173 316.251H319.236V316.251Z" fill="#040000"/>
<path opacity="0.07" d="M548.171 55H544.768L424.083 175.685H548.171C552.495 175.685 556 172.18 556 167.857V62.829C556 58.506 552.495 55 548.171 55Z" fill="#040000"/>
</g>
</svg>
